<svg xmlns="http://www.w3.org/2000/svg" xmlns:xlink="http://www.w3.org/1999/xlink" width="500" zoomAndPan="magnify" viewBox="0 0 375 374.999991" height="500" preserveAspectRatio="xMidYMid meet" version="1.0"><path fill="#6cafc8" d="M 99.597656 250.160156 C 103.359375 228.929688 107.039062 207.699219 110.800781 186.390625 C 111.738281 186.074219 112.757812 185.839844 113.699219 185.527344 C 115.265625 189.367188 117.773438 193.046875 118.320312 197.121094 C 119.339844 205.347656 120.199219 213.808594 119.496094 222.113281 C 118.085938 238.015625 115.578125 253.996094 113.386719 269.902344 C 111.035156 286.824219 106.570312 289.328125 89.492188 286.039062 C 70.609375 282.433594 56.273438 272.09375 42.015625 261.753906 C 39.589844 259.953125 37.394531 254.859375 38.570312 252.585938 C 41 247.652344 46.402344 248.75 50.398438 250.863281 C 59.800781 255.640625 68.964844 260.734375 79.933594 264.339844 C 78.601562 261.832031 77.269531 259.324219 75.859375 256.816406 C 54.394531 218.824219 33.007812 180.828125 11.542969 142.753906 C 9.660156 139.382812 8.09375 134.996094 12.953125 133.117188 C 15.617188 132.097656 21.414062 133.742188 22.902344 135.9375 C 32.066406 149.414062 40.527344 163.277344 49.066406 177.144531 C 64.5 201.980469 79.855469 226.8125 95.289062 251.648438 C 96.777344 251.097656 98.1875 250.628906 99.597656 250.160156 Z M 290.59375 264.101562 C 306.730469 239.738281 322.871094 215.375 339.007812 191.011719 C 347.9375 177.457031 357.105469 163.984375 365.488281 149.960938 C 366.898438 147.6875 365.957031 141.734375 363.917969 139.699219 C 360.160156 136.015625 356.871094 139.304688 354.519531 142.441406 C 328.902344 177.773438 303.363281 213.183594 277.746094 248.511719 C 276.097656 250.785156 274.296875 253.058594 272.652344 255.328125 C 271.320312 243.890625 272.183594 233.394531 272.574219 222.816406 C 272.730469 218.273438 271.476562 212.945312 265.992188 212.789062 C 263.410156 212.710938 259.648438 216.785156 259.101562 219.761719 C 255.652344 237.074219 252.285156 254.3125 256.828125 273.035156 C 260.980469 289.957031 265.132812 292.933594 281.503906 287.996094 C 296.859375 283.375 312.371094 278.910156 327.492188 273.582031 C 335.402344 270.761719 342.691406 266.453125 349.738281 262.066406 C 353.1875 259.953125 355.460938 256.113281 358.28125 253.058594 C 357.652344 252.273438 356.949219 251.570312 356.320312 250.785156 C 335.480469 256.269531 314.566406 261.753906 293.726562 267.238281 C 292.628906 266.296875 291.609375 265.199219 290.59375 264.101562 Z M 187.496094 60.652344 C 185.460938 76.320312 182.796875 91.988281 182.011719 107.65625 C 181.070312 126.378906 181.777344 145.261719 181.777344 164.0625 C 180.679688 164.21875 179.582031 164.453125 178.488281 164.609375 C 175.589844 158.96875 173.082031 153.015625 169.554688 147.609375 C 166.34375 142.597656 165.640625 134.917969 154.28125 134.761719 C 155.296875 139.070312 155.847656 142.519531 156.863281 145.808594 C 160.15625 156.070312 163.679688 166.253906 167.128906 176.441406 C 169.242188 182.628906 170.964844 189.050781 173.785156 194.929688 C 179.035156 205.816406 187.417969 206.914062 193.683594 196.886719 C 203.871094 180.75 213.113281 164.21875 222.042969 147.453125 C 226.117188 139.855469 226.117188 131.707031 219.222656 122.621094 C 211.234375 135.78125 204.183594 147.53125 195.644531 161.632812 C 190.316406 123.402344 195.957031 88.542969 198.070312 54.070312 C 189.21875 52.113281 188.042969 56.421875 187.496094 60.652344 Z M 187.496094 60.652344 " fill-opacity="1" fill-rule="nonzero"/></svg>